<?xml version="1.0" standalone="no"?>
<!DOCTYPE svg PUBLIC "-//W3C//DTD SVG 20010904//EN"
 "http://www.w3.org/TR/2001/REC-SVG-20010904/DTD/svg10.dtd">
<svg version="1.0" xmlns="http://www.w3.org/2000/svg"
 width="833.000000pt" height="395.000000pt" viewBox="0 0 833.000000 395.000000"
 preserveAspectRatio="xMidYMid meet">

<g transform="translate(0.000000,395.000000) scale(0.100000,-0.100000)"
fill="#000000" stroke="none">
<path d="M6350 3793 c-356 -19 -665 -59 -1042 -134 -1048 -210 -2235 -650
-3101 -1151 -38 -22 -66 -42 -64 -45 3 -2 56 25 118 60 461 261 1179 564 1819
767 859 272 1590 412 2231 427 471 11 821 -43 1078 -168 89 -43 117 -63 186
-133 93 -93 142 -179 175 -310 25 -100 27 -305 4 -426 -32 -170 -109 -363
-213 -529 -28 -46 -50 -86 -47 -88 13 -13 152 166 219 282 143 247 208 558
163 780 -60 295 -314 509 -721 605 -220 53 -540 78 -805 63z"/>
<path d="M442 2405 c-16 -13 -34 -37 -40 -52 -11 -29 -42 -187 -42 -216 0 -15
21 -17 218 -17 156 0 221 -3 230 -12 15 -15 15 -63 0 -91 -6 -12 -151 -227
-322 -477 -170 -250 -315 -470 -322 -489 -14 -42 -8 -66 24 -91 24 -19 42 -20
481 -20 564 0 524 -13 562 181 10 55 19 106 19 114 0 13 -32 15 -209 15 -115
0 -221 4 -235 10 -21 8 -26 16 -26 43 0 27 56 116 301 477 165 245 310 463
321 485 30 57 30 121 -1 146 -22 18 -45 19 -476 19 l-453 0 -30 -25z"/>
<path d="M1675 2398 c-30 -29 -37 -44 -50 -113 -20 -105 -19 -112 10 -140 23
-24 30 -25 146 -25 105 0 126 3 154 20 41 26 60 66 74 158 19 121 4 132 -173
132 l-126 0 -35 -32z"/>
<path d="M1619 1995 c-14 -8 -33 -25 -42 -38 -24 -37 -190 -944 -176 -968 23
-44 51 -51 183 -47 l126 3 32 32 c31 32 32 35 115 480 45 246 83 462 83 480 0
22 -8 38 -26 52 -24 19 -40 21 -148 21 -85 -1 -129 -5 -147 -15z"/>
<path d="M2239 1987 c-19 -12 -39 -34 -46 -47 -12 -26 -173 -890 -173 -929 0
-12 11 -33 25 -46 23 -24 30 -25 147 -25 140 0 176 13 203 72 8 18 40 170 70
337 61 339 66 351 135 351 76 0 77 -25 9 -384 -28 -149 -51 -284 -51 -300 -1
-20 7 -37 26 -53 25 -21 36 -23 143 -23 131 0 174 13 199 62 9 17 40 170 69
340 61 348 65 358 136 358 42 0 69 -21 69 -54 0 -12 -25 -159 -55 -326 -61
-332 -61 -347 -5 -370 18 -7 72 -10 149 -8 117 3 120 4 151 33 16 16 35 45 40
65 16 61 162 864 163 894 0 20 -8 37 -27 53 -26 22 -34 23 -184 23 -139 0
-161 -2 -190 -20 -18 -11 -35 -27 -38 -35 -7 -17 -34 -21 -34 -5 0 6 -11 22
-25 35 -24 25 -26 25 -210 25 -199 0 -208 -2 -262 -53 -26 -25 -33 -27 -33
-14 0 10 -11 29 -25 42 -24 24 -28 25 -183 25 -149 0 -161 -1 -193 -23z"/>
<path d="M3932 1990 c-18 -11 -39 -35 -46 -53 -8 -17 -51 -234 -96 -481 -88
-483 -89 -486 -34 -506 14 -6 76 -10 137 -10 125 0 163 14 190 67 8 15 40 165
71 333 39 209 62 313 75 330 36 50 131 34 131 -23 0 -12 -25 -153 -55 -313
-30 -161 -55 -304 -55 -319 0 -14 11 -37 25 -50 23 -24 30 -25 140 -25 128 0
173 12 200 54 10 16 37 144 71 338 61 352 64 361 135 366 50 4 69 -13 69 -61
0 -15 -25 -163 -55 -329 -39 -217 -52 -305 -45 -319 23 -42 49 -49 175 -49
139 0 170 12 197 76 9 21 53 238 98 482 85 466 85 465 41 499 -21 16 -323 18
-354 2 -12 -6 -34 -25 -49 -43 l-27 -31 -10 26 c-20 55 -39 59 -241 59 -167 0
-188 -2 -218 -20 -18 -11 -35 -27 -38 -35 -7 -17 -34 -21 -34 -5 0 6 -11 22
-25 35 -24 24 -28 25 -182 25 -141 0 -162 -2 -191 -20z"/>
<path d="M5655 1993 c-43 -22 -74 -53 -95 -93 -18 -35 -160 -780 -160 -836 0
-41 20 -75 59 -101 34 -23 37 -23 363 -23 357 0 367 1 422 56 38 38 63 96 71
168 l8 58 -252 -3 c-218 -4 -251 -2 -250 11 0 8 77 64 172 124 348 222 365
234 392 281 17 27 33 83 46 153 20 105 20 112 4 146 -9 20 -32 45 -50 56 -31
19 -49 20 -366 20 -285 -1 -338 -3 -364 -17z m485 -256 c0 -14 -340 -237 -360
-237 -13 0 -13 36 1 102 28 129 57 148 232 148 100 0 127 -3 127 -13z"/>
<path d="M6693 1990 c-17 -10 -37 -29 -43 -40 -7 -12 -50 -229 -96 -483 -91
-495 -91 -497 -38 -517 14 -6 76 -10 138 -10 101 0 117 2 147 23 19 12 39 34
46 47 6 14 37 162 68 329 30 168 61 312 67 320 23 31 42 41 78 41 46 0 60 -15
60 -62 l0 -38 139 0 c103 0 140 3 144 13 2 7 15 74 28 149 22 131 23 138 6
172 -28 59 -67 76 -175 76 -101 0 -145 -15 -191 -64 -29 -31 -51 -34 -51 -6 0
12 -11 32 -25 45 -23 24 -30 25 -147 25 -104 0 -128 -3 -155 -20z"/>
<path d="M6182 531 c-57 -37 -88 -110 -62 -151 5 -8 35 -28 67 -45 50 -26 58
-34 61 -61 6 -58 -49 -86 -126 -65 -39 10 -46 10 -58 -6 -12 -16 -9 -20 24
-35 48 -22 87 -22 138 1 49 22 81 61 90 108 10 52 -7 77 -75 108 -57 26 -61
31 -61 61 0 44 27 58 95 50 38 -4 56 -2 64 8 33 39 -101 62 -157 27z"/>
<path d="M5167 528 c-3 -7 -44 -93 -91 -190 l-85 -178 29 0 c24 0 31 6 46 45
l17 45 63 0 64 0 0 -45 c0 -43 1 -45 30 -45 36 0 35 -6 15 200 -8 80 -15 153
-15 163 0 13 -8 17 -34 17 -19 0 -36 -6 -39 -12z m31 -154 l-3 -69 -33 -3
c-46 -5 -48 13 -12 93 37 83 52 77 48 -21z"/>
<path d="M5576 408 c-14 -73 -26 -149 -26 -169 0 -98 147 -118 213 -28 16 23
42 129 71 292 7 37 6 38 -21 35 -27 -3 -28 -5 -56 -148 -16 -85 -35 -152 -45
-163 -11 -13 -27 -17 -56 -15 -39 3 -41 4 -44 41 -3 30 15 141 42 270 3 13 -2
17 -24 17 -27 0 -27 -1 -54 -132z"/>
<path d="M6617 533 c-4 -3 -7 -15 -7 -25 0 -14 8 -18 40 -18 26 0 40 -5 40
-13 0 -15 -49 -274 -56 -299 -4 -14 1 -18 24 -18 l29 0 22 113 c12 61 26 136
32 165 l10 52 45 0 c24 0 44 4 44 9 0 5 3 16 6 25 5 14 -8 16 -108 16 -63 0
-118 -3 -121 -7z"/>
<path d="M7090 363 c-18 -98 -35 -184 -37 -191 -4 -8 5 -12 25 -12 30 0 30 1
44 78 12 65 17 77 33 77 16 0 25 -16 45 -77 24 -76 26 -78 57 -78 18 0 33 2
33 5 0 8 -40 109 -50 127 -16 27 -12 36 20 53 40 21 74 87 65 131 -9 50 -37
64 -125 64 l-76 0 -34 -177z m170 112 c14 -17 6 -62 -17 -87 -17 -19 -93 -26
-93 -8 0 5 5 32 11 60 11 49 11 50 49 50 21 0 43 -6 50 -15z"/>
<path d="M7611 373 c-18 -93 -35 -178 -38 -190 -4 -20 -1 -23 25 -23 l29 0 32
168 c18 92 35 177 38 190 4 19 1 22 -25 22 l-29 0 -32 -167z"/>
<path d="M7989 355 c-49 -102 -89 -187 -89 -190 0 -3 11 -5 25 -5 21 0 29 9
45 45 l19 45 60 0 60 0 7 -45 c6 -42 9 -45 36 -45 27 0 29 2 24 33 -3 17 -10
93 -16 167 -15 182 -14 180 -51 180 -30 0 -33 -5 -120 -185z m114 33 c3 -39 4
-75 1 -80 -3 -4 -21 -8 -40 -8 -29 0 -34 3 -34 23 0 13 4 27 9 33 4 5 16 30
26 57 10 26 21 47 25 47 4 0 10 -32 13 -72z"/>
</g>
</svg>
